<?xml version="1.0" encoding="utf-8"?>
<svg viewBox="0 0 1000 1000" xmlns="http://www.w3.org/2000/svg" xmlns:bx="https://boxy-svg.com">
  <g transform="matrix(2.135565, 0, 0, 2.135565, -34.519688, -34.182777)">
    <title>PocketDex</title>
    <g>
      <title>Case</title>
      <rect x="110" y="68.66" width="280" height="362.679" style="stroke-miterlimit: 3; stroke-linecap: round; stroke-linejoin: round; paint-order: stroke; stroke: rgb(78, 23, 23); fill: rgb(239, 62, 56); fill-rule: nonzero; stroke-width: 25px;" rx="13.229" ry="13.229">
        <title>Border</title>
      </rect>
      <rect x="110" y="68" width="280" height="182.098" style="stroke-miterlimit: 3; stroke-linecap: round; stroke-linejoin: round; paint-order: stroke; stroke: rgb(78, 23, 23); fill-rule: nonzero; fill: rgb(245, 118, 114); stroke-width: 0px;" rx="12.794" ry="12.794">
        <title>Top glow</title>
      </rect>
      <rect x="110" y="249.902" width="280" height="182.098" style="stroke-miterlimit: 3; stroke-linecap: round; stroke-linejoin: round; paint-order: stroke; stroke: rgb(78, 23, 23); fill-rule: nonzero; fill: rgb(184, 52, 49); stroke-width: 0px;" rx="13.907" ry="13.907">
        <title>Bottom shadow</title>
      </rect>
      <rect x="110" y="75.509" width="280" height="348.981" style="stroke-miterlimit: 3; stroke-linecap: round; stroke-linejoin: round; paint-order: stroke; stroke: rgb(78, 23, 23); fill: rgb(239, 62, 56); fill-rule: nonzero; stroke-width: 0px;" rx="13.229" ry="13.229">
        <title>Plastic</title>
      </rect>
    </g>
    <g>
      <title>Front part</title>
      <g transform="matrix(1.117811, 0, 0, 1.117811, -15.743064, -13.030869)">
        <title>Camera</title>
        <ellipse style="stroke-width: 2px; fill: rgb(237, 223, 238); stroke: rgb(78, 23, 23);" cx="153.63" cy="112.172" rx="20" ry="20">
          <title>Metal</title>
        </ellipse>
        <ellipse style="stroke: rgb(0, 0, 0); stroke-width: 2px; fill: rgb(96, 198, 249);" cx="153.5" cy="112" rx="15" ry="15">
          <title>Glass</title>
        </ellipse>
        <ellipse style="stroke: rgb(0, 0, 0); stroke-width: 2px; fill: rgb(171, 227, 254); vector-effect: non-scaling-stroke; stroke-opacity: 0;" cx="149.233" cy="107.916" rx="5" ry="5">
          <title>Glow</title>
        </ellipse>
      </g>
      <g transform="matrix(0.319653, 0, 0, 0.319653, 147.259811, 62.552368)" bx:origin="0.5 0.504102">
        <title>Red light</title>
        <ellipse style="fill: rgb(237, 223, 238); stroke-width: 4px; stroke: rgb(78, 23, 23);" cx="153.63" cy="112.172" rx="20" ry="20">
          <title>Metal</title>
        </ellipse>
        <ellipse style="stroke: rgb(0, 0, 0); stroke-width: 0px; fill: rgb(202, 0, 0);" cx="153.5" cy="112" rx="15" ry="15">
          <title>Glass</title>
        </ellipse>
        <ellipse style="stroke: rgb(0, 0, 0); stroke-width: 2px; vector-effect: non-scaling-stroke; stroke-opacity: 0; fill: rgb(235, 245, 251);" cx="149.233" cy="107.916" rx="5" ry="5">
          <title>Glow</title>
        </ellipse>
      </g>
      <g transform="matrix(0.319653, 0, 0, 0.319653, 167.670868, 62.552368)">
        <title>Red yellow</title>
        <ellipse style="fill: rgb(237, 223, 238); stroke-width: 4px; stroke: rgb(78, 23, 23);" cx="153.63" cy="112.172" rx="20" ry="20">
          <title>Metal</title>
        </ellipse>
        <ellipse style="stroke-width: 0px; fill: rgb(243, 164, 41); stroke: rgb(78, 23, 23);" cx="153.5" cy="112" rx="15" ry="15">
          <title>Glass</title>
        </ellipse>
        <ellipse style="stroke-width: 2px; vector-effect: non-scaling-stroke; stroke-opacity: 0; fill: rgb(235, 245, 251); stroke: rgb(78, 23, 23);" cx="149.233" cy="107.916" rx="5" ry="5">
          <title>Glow</title>
        </ellipse>
      </g>
      <g transform="matrix(0.319653, 0, 0, 0.319653, 188.128616, 62.552368)">
        <title>Red green</title>
        <ellipse style="fill: rgb(237, 223, 238); stroke-width: 4px; stroke: rgb(78, 23, 23);" cx="153.63" cy="112.172" rx="20" ry="20">
          <title>Metal</title>
        </ellipse>
        <ellipse style="stroke-width: 0px; fill: rgb(119, 169, 72); stroke: rgb(78, 23, 23);" cx="153.5" cy="112" rx="15" ry="15">
          <title>Glass</title>
        </ellipse>
        <ellipse style="stroke-width: 2px; vector-effect: non-scaling-stroke; stroke-opacity: 0; fill: rgb(235, 245, 251); stroke: rgb(78, 23, 23);" cx="149.233" cy="107.916" rx="5" ry="5">
          <title>Glow</title>
        </ellipse>
      </g>
    </g>
    <g>
      <title>Folding screen</title>
      <rect x="97.6" y="1151.845" width="12.4" height="157.481" style="stroke: rgb(0, 0, 0); paint-order: stroke markers; vector-effect: non-scaling-stroke; stroke-width: 0px; fill: rgb(78, 23, 23);" transform="matrix(-0.001284, -0.999999, 0.999999, -0.001284, -1041.886353, 266.038513)">
        <title>Divider 1</title>
      </rect>
      <rect x="97.603" y="390.326" width="12.4" height="53.366" style="stroke: rgb(0, 0, 0); paint-order: stroke markers; vector-effect: non-scaling-stroke; stroke-width: 0px; fill: rgb(78, 23, 23);" transform="matrix(-0.001132, -0.999999, 0.999127, -0.771654, -122.64048, 565.562134)">
        <title>Divider 2</title>
      </rect>
      <rect x="98.544" y="514.081" width="12.52" height="70.285" style="stroke: rgb(0, 0, 0); paint-order: stroke markers; vector-effect: non-scaling-stroke; stroke-width: 0px; fill: rgb(78, 23, 23);" transform="matrix(-0.001284, -0.999999, 0.999999, -0.001284, -193.492386, 224.793945)">
        <title>Divider 3</title>
      </rect>
      <rect x="97.6" y="2248.088" width="12.4" height="307.359" style="stroke: rgb(0, 0, 0); paint-order: stroke markers; vector-effect: non-scaling-stroke; stroke-width: 0px; fill: rgb(78, 23, 23);" transform="matrix(-1, 0.000062, -0.000062, -1, 459.495392, 2680.354248)">
        <title>Divider 4</title>
      </rect>
      <g>
        <title>Top hinge</title>
        <rect x="97.6" y="214.673" width="12.4" height="29.351" style="stroke: rgb(0, 0, 0); paint-order: stroke markers; vector-effect: non-scaling-stroke; stroke-width: 0px; fill: rgb(78, 23, 23);" transform="matrix(-0.000013, 1, -1, -0.000013, 605.44635, 56.197044)">
          <title>Top plastic</title>
        </rect>
        <rect x="97.6" y="207.414" width="12.4" height="28.357" style="stroke: rgb(0, 0, 0); paint-order: stroke markers; vector-effect: non-scaling-stroke; stroke-width: 0px; fill: rgb(243, 120, 118);" transform="matrix(-0.000013, 1, -1, -0.000013, 597.597168, 68.603065)">
          <title>Glow</title>
        </rect>
        <rect x="97.6" y="214.673" width="12.4" height="29.351" style="stroke: rgb(0, 0, 0); paint-order: stroke markers; vector-effect: non-scaling-stroke; stroke-width: 0px; fill: rgb(78, 23, 23);" transform="matrix(-0.000013, 1, -1, -0.000013, 605.446594, 93.403145)">
          <title>Bottom plastic</title>
        </rect>
      </g>
      <g>
        <title>Bottom hinge</title>
        <rect x="97.6" y="214.673" width="12.4" height="29.351" style="stroke: rgb(0, 0, 0); paint-order: stroke markers; vector-effect: non-scaling-stroke; stroke-width: 0px; fill: rgb(78, 23, 23);" transform="matrix(-0.000013, 1, -1, -0.000013, 605.4151, 261.466797)">
          <title>Top plastic</title>
        </rect>
        <rect x="97.6" y="207.731" width="12.4" height="28.401" style="stroke: rgb(0, 0, 0); paint-order: stroke markers; vector-effect: non-scaling-stroke; stroke-width: 0px; fill: rgb(243, 120, 118);" transform="matrix(-0.000013, 1, -1, -0.000013, 597.927002, 273.872803)">
          <title>Glow</title>
        </rect>
        <rect x="97.6" y="214.673" width="12.4" height="29.351" style="stroke: rgb(0, 0, 0); paint-order: stroke markers; vector-effect: non-scaling-stroke; stroke-width: 0px; fill: rgb(78, 23, 23);" transform="matrix(-0.000013, 1, -1, -0.000013, 605.415344, 298.672913)">
          <title>Bottom plastic</title>
        </rect>
      </g>
      <path d="M 148.249 235.043 Q 152.249 228.043 156.249 235.043 L 168.249 256.043 Q 172.249 263.043 164.249 263.043 L 140.249 263.043 Q 132.249 263.043 136.249 256.043 Z" style="fill: rgb(255, 195, 85); stroke-width: 3px; stroke: rgb(78, 23, 23);" transform="matrix(0, 1, -1, 0, 396.643005, 128.371063)" bx:shape="triangle 132.249 228.043 40 35 0.5 0.2 1@d540f326">
        <title>Button</title>
      </path>
      <rect x="192.012" y="384.886" width="115.976" height="12.087" style="stroke-width: 4px; fill: rgb(180, 48, 42); stroke: rgb(78, 23, 23);" rx="6.043" ry="6.043">
        <title>Tag</title>
      </rect>
    </g>
  </g>
</svg>